PathFileType	4	(X/Y/Z)	OpenSim_Sub10_EMGStiffKnee_Magnet.trc
DataRate	CameraRate	NumFrames	NumMarkers	Units	OrigDataRate	OrigDataStartFrame	OrigNumFrames
100	100	36	8	m	100	4186	8371
Frame#	Time	torso_imu_offset_imu	pelvis_imu_offset_imu	tibia_r_imu_offset_imu	femur_r_imu_offset_imu	tibia_l_imu_offset_imu	femur_l_imu_offset_imu	toes_r_imu_offset_imu	toes_l_imu_offset_imu
				X1	Y1	Z1	X2	Y2	Z2	X3	Y3	Z3	X4	Y4	Z4	X5	Y5	Z5	X6	Y6	Z6	X7	Y7	Z7	X8		Y8	Z8	

4186	41.85000000	-0.92993200	-0.09301800	0.11889600	-0.60864300	0.08520500	-0.70825200	-0.73217800	-0.49731400	-0.08154300	-0.82202100	-0.17358400	0.10205100	-0.47070300	0.63208000	0.25073200	-0.65551800	0.42089800	0.32251000	-0.67016600	-0.18652300	-0.38647500	-0.76684600	-0.23046900	-0.19921900
4187	41.86000000	-0.93432600	-0.08886700	0.12109400	-0.60644500	0.08300800	-0.70361300	-0.72534200	-0.50781200	-0.06787100	-0.81762700	-0.18383800	0.10009800	-0.45727500	0.63867200	0.25488300	-0.65966800	0.41430700	0.30688500	-0.66601600	-0.18652300	-0.38232400	-0.77319300	-0.23950200	-0.16992200
4188	41.87000000	-0.93017600	-0.08667000	0.12085000	-0.61254900	0.07470700	-0.71020500	-0.71484400	-0.51391600	-0.05639600	-0.81713900	-0.19848600	0.10766600	-0.43774400	0.65844700	0.24682600	-0.67065400	0.41650400	0.29345700	-0.66821300	-0.18042000	-0.38037100	-0.77978500	-0.24194300	-0.12963900
4189	41.88000000	-0.93237300	-0.08032200	0.11840800	-0.60791000	0.06420900	-0.71899400	-0.70361300	-0.53271500	-0.05810500	-0.81469700	-0.21093800	0.11718800	-0.42236300	0.66503900	0.24414100	-0.67944300	0.41406200	0.28662100	-0.66577100	-0.19067400	-0.38012700	-0.78442400	-0.23559600	-0.09594700
4190	41.89000000	-0.93457000	-0.08032200	0.11621100	-0.60546900	0.06005900	-0.71899400	-0.70336900	-0.53906200	-0.05566400	-0.79931600	-0.23144500	0.11816400	-0.40722700	0.68042000	0.24536100	-0.68359400	0.40527300	0.27343800	-0.66552700	-0.20288100	-0.38208000	-0.78686500	-0.23144500	-0.05542000
4191	41.90000000	-0.93701200	-0.07202100	0.11596700	-0.60083000	0.04736300	-0.72778300	-0.70776400	-0.53271500	-0.05810500	-0.79248000	-0.25415000	0.11669900	-0.39184600	0.69165000	0.24682600	-0.69653300	0.39868200	0.26440400	-0.66137700	-0.20068400	-0.37353500	-0.79370100	-0.22729500	-0.01953100
4192	41.91000000	-0.93676800	-0.07397500	0.11816400	-0.59619100	0.03906200	-0.72973600	-0.70996100	-0.53076200	-0.05127000	-0.79199200	-0.26855500	0.11254900	-0.37817400	0.68920900	0.26245100	-0.70727500	0.38769500	0.26245100	-0.66137700	-0.20068400	-0.38208000	-0.78491200	-0.22314500	0.01196300
4193	41.92000000	-0.93286100	-0.06762700	0.11352500	-0.59838900	0.03491200	-0.73437500	-0.71411100	-0.53076200	-0.05371100	-0.78320300	-0.28320300	0.11084000	-0.35839800	0.69824200	0.25952100	-0.70922900	0.38110400	0.25341800	-0.66333000	-0.20483400	-0.37353500	-0.79882800	-0.21020500	0.04345700
4194	41.93000000	-0.93945300	-0.06127900	0.10668900	-0.59594700	0.02856400	-0.73632800	-0.70776400	-0.53491200	-0.06005900	-0.78491200	-0.29956100	0.11157200	-0.34277300	0.70483400	0.26782200	-0.71533200	0.37011700	0.25366200	-0.65942400	-0.20263700	-0.37573200	-0.79003900	-0.20361300	0.05908200
4195	41.94000000	-0.93310500	-0.05932600	0.11328100	-0.59375000	0.02661100	-0.73852500	-0.70141600	-0.54101600	-0.06005900	-0.77612300	-0.31201200	0.10742200	-0.32934600	0.70459000	0.29003900	-0.71948200	0.35937500	0.25366200	-0.66333000	-0.20483400	-0.37353500	-0.79272500	-0.19726600	0.08593800
4196	41.95000000	-0.93945300	-0.05712900	0.11523400	-0.59130900	0.01806600	-0.73364300	-0.70556600	-0.54101600	-0.05761700	-0.76953100	-0.32031200	0.10327100	-0.32055700	0.70678700	0.29882800	-0.72802700	0.35058600	0.25146500	-0.66748000	-0.21313500	-0.36938500	-0.79052700	-0.19262700	0.08154300
4197	41.96000000	-0.93530300	-0.05297900	0.11059600	-0.59960900	0.00756800	-0.74267600	-0.71386700	-0.54321300	-0.05761700	-0.77124000	-0.33276400	0.10595700	-0.30468800	0.70678700	0.30322300	-0.73852500	0.33935500	0.26074200	-0.66333000	-0.21093800	-0.36938500	-0.79785200	-0.17968800	0.08593800
4198	41.97000000	-0.94189500	-0.04663100	0.11254900	-0.59277300	-0.00073200	-0.73999000	-0.70776400	-0.53906200	-0.04882800	-0.76879900	-0.34301800	0.10864300	-0.28930700	0.71142600	0.30493200	-0.73388700	0.33081100	0.24951200	-0.66113300	-0.21508800	-0.36499000	-0.80493200	-0.16870100	0.08129900
4199	41.98000000	-0.93774400	-0.04223600	0.11474600	-0.59497100	-0.00293000	-0.73510700	-0.70727500	-0.55151400	-0.04834000	-0.76245100	-0.34716800	0.10864300	-0.28295900	0.72021500	0.29101600	-0.74487300	0.32861300	0.25634800	-0.65893600	-0.21704100	-0.36718800	-0.80761700	-0.15747100	0.07226600
4200	41.99000000	-0.93798800	-0.04028300	0.11669900	-0.58618200	-0.00903300	-0.74658200	-0.70532200	-0.54956100	-0.03515600	-0.75805700	-0.35742200	0.11840800	-0.27856400	0.72680700	0.27954100	-0.74438500	0.31762700	0.27002000	-0.65258800	-0.21899400	-0.36279300	-0.80590800	-0.14209000	0.06103500
4201	42	-0.93359400	-0.04028300	0.11669900	-0.59008800	-0.01733400	-0.75097700	-0.70532200	-0.54736300	-0.03295900	-0.75561500	-0.36377000	0.12085000	-0.28344700	0.73559600	0.26342800	-0.74877900	0.31323200	0.26538100	-0.65893600	-0.22119100	-0.35864300	-0.81079100	-0.12890600	0.04760700
4202	42.01000000	-0.94238300	-0.03393600	0.11865200	-0.58129900	-0.02368200	-0.74609400	-0.70532200	-0.54956100	-0.03295900	-0.74707000	-0.37182600	0.11669900	-0.29028300	0.74218800	0.24536100	-0.75073200	0.30444300	0.26342800	-0.65673800	-0.22119100	-0.36499000	-0.81127900	-0.11767600	0.03173800
4203	42.02000000	-0.93603500	-0.02954100	0.12744100	-0.58544900	-0.03198200	-0.75732400	-0.70507800	-0.55151400	-0.03051800	-0.74267600	-0.38232400	0.12158200	-0.29248000	0.73803700	0.22534200	-0.75048800	0.30029300	0.26562500	-0.66064500	-0.22924800	-0.36279300	-0.81616200	-0.10668900	0.01586900
4204	42.03000000	-0.93603500	-0.03173800	0.12524400	-0.58300800	-0.04052700	-0.74780300	-0.70727500	-0.55175800	-0.03051800	-0.73828100	-0.38842800	0.12182600	-0.30615200	0.74243200	0.20532200	-0.75244100	0.29150400	0.26342800	-0.65869100	-0.22729500	-0.36279300	-0.81884800	-0.09765600	-0.00195300
4205	42.04000000	-0.94043000	-0.02978500	0.13183600	-0.58496100	-0.04248000	-0.76171900	-0.70092800	-0.55371100	-0.03710900	-0.72949200	-0.40283200	0.12011700	-0.30835000	0.74023400	0.18530300	-0.76098600	0.28710900	0.26342800	-0.65869100	-0.22534200	-0.35668900	-0.81933600	-0.08447300	-0.02221700
4206	42.05000000	-0.94067400	-0.02124000	0.13574200	-0.57617200	-0.05102500	-0.74975600	-0.70092800	-0.55566400	-0.03930700	-0.72509800	-0.41113300	0.11816400	-0.32641600	0.74243200	0.16748000	-0.75878900	0.28271500	0.26367200	-0.65454100	-0.22729500	-0.36474600	-0.81298800	-0.07104500	-0.04028300
4207	42.06000000	-0.93627900	-0.02319300	0.13818400	-0.57812500	-0.05712900	-0.75634800	-0.69848600	-0.56005900	-0.04150400	-0.72070300	-0.41723600	0.11840800	-0.33764600	0.74487300	0.14282200	-0.76074200	0.27612300	0.26367200	-0.65869100	-0.22924800	-0.36279300	-0.81323200	-0.06860400	-0.06274400
4208	42.07000000	-0.93847700	-0.01904300	0.14233400	-0.58032200	-0.05712900	-0.75878900	-0.70263700	-0.56616200	-0.05249000	-0.72021500	-0.43188500	0.11889600	-0.35107400	0.73608400	0.12793000	-0.76709000	0.27172900	0.26147500	-0.65869100	-0.23144500	-0.36059600	-0.81591800	-0.05761700	-0.08081100
4209	42.08000000	-0.93457000	-0.01049800	0.14648400	-0.57373000	-0.05932600	-0.75634800	-0.70459000	-0.56835900	-0.05688500	-0.71386700	-0.43579100	0.11010700	-0.37329100	0.73388700	0.09912100	-0.77124000	0.26293900	0.25708000	-0.65869100	-0.22924800	-0.35864300	-0.81616200	-0.04882800	-0.09668000
4210	42.09000000	-0.94091800	-0.01489300	0.13989300	-0.57153300	-0.06347700	-0.76098600	-0.69799800	-0.57861300	-0.06103500	-0.70312500	-0.44409200	0.10131800	-0.38647500	0.72290000	0.08422900	-0.77124000	0.26513700	0.25927700	-0.65844700	-0.23339800	-0.36694300	-0.81176800	-0.04638700	-0.11694300
4211	42.10000000	-0.93676800	-0.01074200	0.14868200	-0.56933600	-0.06543000	-0.76318400	-0.69409200	-0.57031200	-0.06347700	-0.70507800	-0.45019500	0.10376000	-0.40869100	0.71191400	0.07617200	-0.76879900	0.25878900	0.25048800	-0.65869100	-0.23144500	-0.35864300	-0.80761700	-0.03955100	-0.13940400
4212	42.11000000	-0.93676800	-0.01074200	0.14868200	-0.56518600	-0.06127900	-0.76562500	-0.69384800	-0.57251000	-0.06787100	-0.70043900	-0.46044900	0.09277300	-0.43261700	0.69433600	0.06835900	-0.77539100	0.25634800	0.24585000	-0.65649400	-0.23535200	-0.35839800	-0.80078100	-0.03930700	-0.15966800
4213	42.12000000	-0.93896500	-0.00439500	0.15502900	-0.56054700	-0.07177700	-0.76757800	-0.69580100	-0.57861300	-0.06762700	-0.69824200	-0.46264600	0.08813500	-0.45263700	0.68774400	0.06884800	-0.77758800	0.25195300	0.24585000	-0.65454100	-0.22924800	-0.35644500	-0.79638700	-0.03930700	-0.18432600
4214	42.13000000	-0.93920900	-0.00219700	0.16137700	-0.56909200	-0.07177700	-0.76293900	-0.68945300	-0.57861300	-0.07421900	-0.68969700	-0.46679700	0.08618200	-0.47900400	0.67211900	0.06323200	-0.78173800	0.24755900	0.23925800	-0.66088900	-0.22534200	-0.36279300	-0.79199200	-0.03686500	-0.20898400
4215	42.14000000	-0.93701200	0.00195300	0.15698200	-0.56909200	-0.06762700	-0.77002000	-0.68920900	-0.58691400	-0.06958000	-0.68725600	-0.47705100	0.07739300	-0.49633800	0.65454100	0.06225600	-0.78369100	0.24121100	0.24389600	-0.66064500	-0.22924800	-0.36279300	-0.78491200	-0.04541000	-0.22680700
4216	42.15000000	-0.93042000	-0.00415000	0.16381800	-0.56689500	-0.07592800	-0.76977500	-0.68481400	-0.59106400	-0.07836900	-0.68505900	-0.48120100	0.07739300	-0.51831100	0.63696300	0.06787100	-0.77929700	0.23901400	0.23486300	-0.66064500	-0.22924800	-0.35644500	-0.78247100	-0.05200200	-0.25170900
4217	42.16000000	-0.93261700	-0.00219700	0.16357400	-0.56250000	-0.07373000	-0.77221700	-0.67431600	-0.59326200	-0.07836900	-0.68066400	-0.48950200	0.07788100	-0.54003900	0.61938500	0.06665000	-0.78588900	0.23681600	0.23486300	-0.65869100	-0.22729500	-0.36084000	-0.77343800	-0.05395500	-0.27636700
4218	42.17000000	-0.93066400	0.00219700	0.17456100	-0.55810500	-0.07812500	-0.76953100	-0.67627000	-0.59741200	-0.08252000	-0.67846700	-0.49145500	0.08007800	-0.56396500	0.59741200	0.07251000	-0.79003900	0.23461900	0.22607400	-0.66064500	-0.23339800	-0.35644500	-0.76635700	-0.06250000	-0.29199200
4219	42.18000000	-0.93090800	0.00634800	0.17211900	-0.55810500	-0.07812500	-0.76953100	-0.67627000	-0.59936500	-0.08471700	-0.67407200	-0.50170900	0.08276400	-0.58129900	0.57080100	0.07177700	-0.79003900	0.23022500	0.23046900	-0.66064500	-0.23339800	-0.35229500	-0.75708000	-0.07324200	-0.32348600
4220	42.19000000	-0.92846700	0.00219700	0.17895500	-0.56250000	-0.07592800	-0.76733400	-0.67187500	-0.60156200	-0.08911100	-0.67407200	-0.49755900	0.08276400	-0.60522500	0.55542000	0.07959000	-0.78784200	0.23022500	0.22827100	-0.65844700	-0.23535200	-0.35424800	-0.75000000	-0.08422900	-0.33911100
4221	42.20000000	-0.93725600	0.00195300	0.18115200	-0.56225600	-0.08227500	-0.77172900	-0.66748000	-0.61206100	-0.08886700	-0.66748000	-0.50781200	0.07861300	-0.61792000	0.52685500	0.08349600	-0.78759800	0.22583000	0.22607400	-0.66064500	-0.23339800	-0.35229500	-0.73388700	-0.09716800	-0.36377000
